<svg xmlns="http://www.w3.org/2000/svg" xmlns:xlink="http://www.w3.org/1999/xlink" id="Layer_1" x="0" y="0" version="1.1" viewBox="0 0 112 112" xml:space="preserve" style="enable-background:new 0 0 112 112"><style type="text/css">.st0{fill:#1896a4}.st1{fill:#fff}</style><g><circle cx="56" cy="56" r="54" class="st0"/><g><g><path d="M62.75,72.88c-2.06,0.82-4.29,1.29-6.64,1.29c-9.88,0-17.89-8.01-17.89-17.89c0-0.73,0.06-1.45,0.14-2.16 l-18.02-2.93C20.12,52.76,20,54.37,20,56c0,19.88,16.12,36,36,36c6.97,0,13.47-1.99,18.98-5.42L62.75,72.88z" class="st1"/></g><path d="M72.94,50.18L49,55.46l42.05,8.74C91.66,61.56,92,58.82,92,56c0-19.88-16.12-36-36-36 c-7.98,0-15.34,2.6-21.31,6.99l12.44,13.82c2.64-1.54,5.7-2.43,8.98-2.43C63.85,38.38,70.45,43.3,72.94,50.18" class="st1"/></g></g></svg>