<svg xmlns="http://www.w3.org/2000/svg" xmlns:xlink="http://www.w3.org/1999/xlink" id="Layer_1" x="0" y="0" version="1.1" viewBox="0 0 402 114" xml:space="preserve" style="enable-background:new 0 0 402 114"><style type="text/css">.st0{fill:#1896a4}.st1{fill:#fff}.st2{fill:#0c5876}</style><g><circle cx="57.33" cy="57" r="54" class="st0"/><g><g><path d="M64.08,73.88c-2.06,0.82-4.29,1.29-6.64,1.29c-9.88,0-17.89-8.01-17.89-17.89c0-0.73,0.06-1.45,0.14-2.16 l-18.02-2.93c-0.21,1.57-0.33,3.18-0.33,4.81c0,19.88,16.12,36,36,36c6.97,0,13.47-1.99,18.98-5.42L64.08,73.88z" class="st1"/></g><path d="M74.27,51.18l-23.94,5.28l42.05,8.74c0.61-2.63,0.95-5.38,0.95-8.2c0-19.88-16.12-36-36-36 c-7.98,0-15.34,2.6-21.31,6.99l12.44,13.82c2.64-1.54,5.7-2.43,8.98-2.43C65.18,39.38,71.78,44.3,74.27,51.18" class="st1"/></g></g><g><polygon points="139.56 19.99 139.56 94.01 157.5 94.01 157.5 52.58 172.91 81.88 182.26 81.88 198.43 52.58 198.43 94.01 216.11 94.01 216.11 19.99 198.43 19.99 177.84 57.36 158.26 19.99" class="st2"/><polygon points="228.08 19.99 281.04 19.99 281.04 35.15 245.42 35.15 245.42 48.6 276.11 48.6 276.11 63.09 245.51 63.09 245.51 77.87 281.89 77.87 281.89 94.01 228.08 94.01" class="st2"/><polygon points="287.61 19.99 305.28 19.99 329.66 70.64 335.97 57 318.54 19.99 335.22 19.99 343.05 35.91 349.11 19.99 368.31 19.99 353.15 57.36 359.72 70.64 379.05 19.99 398.67 19.99 367.81 94.01 353.28 94.01 345.07 76.07 337.99 94.01 322.97 94.01" class="st2"/></g></svg>