<svg xmlns="http://www.w3.org/2000/svg" xmlns:xlink="http://www.w3.org/1999/xlink" id="Layer_1" x="0" y="0" version="1.1" viewBox="0 0 36 24" xml:space="preserve" style="enable-background:new 0 0 36 24"><style type="text/css">.st0{fill:#353a48}.st1{fill:#ff5f00}.st2{fill:#eb001b}.st3{fill:#f79e1b}</style><path d="M0,6.4C0,4.2,0,3,0.4,2.2c0.4-0.8,1-1.4,1.7-1.7C3,0,4.2,0,6.4,0h23.2c2.2,0,3.4,0,4.2,0.4	c0.8,0.4,1.4,1,1.7,1.7C36,3,36,4.2,36,6.4v11.2c0,2.2,0,3.4-0.4,4.2c-0.4,0.8-1,1.4-1.7,1.7C33,24,31.8,24,29.6,24H6.4	c-2.2,0-3.4,0-4.2-0.4c-0.8-0.4-1.4-1-1.7-1.7C0,21,0,19.8,0,17.6V6.4z" class="st0"/><g id="layer1" transform="matrix(3.3557321,0,0,3.3557321,-1551.7864,-2007.0469)"><g id="g13" transform="matrix(2.5579399,0,0,2.5579399,884.90115,-11.427398)"><g id="XMLID_328_" transform="translate(-502.86126,-22.613497)"><rect id="rect19" width=".8" height="1.4" x="339.4" y="261.6" class="st1"/><path id="XMLID_330_" d="M339.5,262.3c0-0.3,0.1-0.5,0.3-0.7c-0.1-0.1-0.3-0.2-0.5-0.2c-0.5,0-0.9,0.4-0.9,0.9 c0,0.5,0.4,0.9,0.9,0.9c0.2,0,0.4-0.1,0.5-0.2C339.6,262.8,339.5,262.6,339.5,262.3z" class="st2"/><path id="path22" d="M341.2,262.3c0,0.5-0.4,0.9-0.9,0.9c-0.2,0-0.4-0.1-0.5-0.2c0.2-0.2,0.3-0.4,0.3-0.7 c0-0.3-0.1-0.5-0.3-0.7c0.1-0.1,0.3-0.2,0.5-0.2C340.8,261.4,341.2,261.8,341.2,262.3z" class="st3"/></g></g></g></svg>